<svg width="320" height="37" viewBox="0 0 320 37" fill="none" xmlns="http://www.w3.org/2000/svg">
<path d="M52.4941 29.1537V6.46936H62.0864C64.4196 6.46936 66.2938 6.93383 67.7089 7.86282C69.1237 8.79197 69.8312 10.2395 69.8315 12.2053C69.8315 13.5233 69.421 14.5927 68.6001 15.4135C67.7788 16.2348 66.7202 16.8181 65.4242 17.1634C66.9798 17.4875 68.2166 18.1194 69.1348 19.0592C70.0528 19.9989 70.5119 21.1926 70.512 22.6401C70.512 24.8872 69.6695 26.5345 67.9844 27.582C66.2993 28.6301 64.182 29.154 61.6327 29.1537H52.4941ZM61.5679 15.6079C64.1604 15.6079 65.4566 14.6465 65.4567 12.7238C65.4567 10.9526 64.1604 10.0668 61.5679 10.0664H56.6746V15.6079H61.5679ZM61.7948 25.5566C64.6896 25.5566 66.1371 24.4765 66.1372 22.316C66.1372 21.1929 65.7861 20.3774 65.084 19.8693C64.3816 19.362 63.2852 19.1081 61.7948 19.1078H56.6746V25.5566H61.7948Z" fill="#006633"/>
<path d="M73.166 10.9414V6.79346H77.314V10.9414H73.166ZM73.2632 13.3395H77.2168V29.1537H73.2632V13.3395Z" fill="#006633"/>
<path d="M83.6651 28.7162C82.4337 28.0357 81.4777 27.0635 80.7972 25.7996C80.1166 24.5358 79.7764 23.0397 79.7764 21.3114C79.7764 19.6049 80.122 18.1143 80.8134 16.8393C81.5046 15.5648 82.4605 14.5765 83.6813 13.8742C84.9016 13.1723 86.3005 12.8213 87.878 12.8209C89.4548 12.8209 90.859 13.1666 92.0908 13.8579C93.3222 14.5496 94.2836 15.538 94.975 16.8231C95.6662 18.1087 96.0118 19.6048 96.012 21.3114C96.012 23.04 95.6663 24.5361 94.975 25.7996C94.2833 27.0635 93.3219 28.0357 92.0908 28.7162C90.8594 29.3967 89.4551 29.737 87.878 29.737C86.3007 29.737 84.8964 29.3967 83.6651 28.7162ZM90.8756 25.2163C91.6209 24.2765 91.9936 22.9749 91.9936 21.3114C91.9936 19.6262 91.6155 18.3138 90.8594 17.374C90.1029 16.4342 89.1091 15.9643 87.878 15.9643C86.6465 15.9643 85.6581 16.4342 84.9129 17.374C84.1675 18.3138 83.7948 19.6262 83.7948 21.3114C83.7948 22.9752 84.162 24.2769 84.8966 25.2163C85.6308 26.1561 86.6246 26.626 87.878 26.6259C89.1306 26.6259 90.1298 26.1561 90.8756 25.2163H90.8756Z" fill="#006633"/>
<path d="M100.325 34.6789C99.0287 33.566 98.3806 32.0915 98.3805 30.2555H102.399C102.442 31.2059 102.755 31.9404 103.339 32.4591C103.922 32.9776 104.743 33.2369 105.802 33.2369C106.903 33.2369 107.816 32.9236 108.54 32.2971C109.263 31.6702 109.625 30.7844 109.625 29.6398V27.9222C109.625 27.1445 109.669 26.4856 109.755 25.9454C108.61 27.6954 106.968 28.5704 104.829 28.5703C103.447 28.5703 102.221 28.2571 101.151 27.6306C100.082 27.0042 99.2447 26.0968 98.6398 24.9084C98.0347 23.7206 97.7322 22.3163 97.7324 20.6957C97.7324 19.1189 98.0565 17.7308 98.7046 16.5315C99.3528 15.3324 100.206 14.4142 101.265 13.7769C102.323 13.1399 103.446 12.8213 104.635 12.8209C105.952 12.8209 107.006 13.0586 107.795 13.5339C108.583 14.0093 109.236 14.7006 109.755 15.6078C109.667 15.094 109.624 14.5736 109.625 14.0524V13.3394H113.579V28.6676C113.579 31.1953 112.872 33.1073 111.456 34.4035C110.041 35.6997 108.124 36.3478 105.704 36.3479C103.414 36.3479 101.621 35.7915 100.325 34.6789ZM108.718 24.0983C109.474 23.2127 109.852 22.0785 109.852 20.6957C109.852 19.3133 109.474 18.1791 108.718 17.293C107.962 16.4074 107 15.9645 105.834 15.9643C104.646 15.9643 103.668 16.4072 102.901 17.293C102.134 18.1791 101.751 19.3133 101.751 20.6957C101.751 22.0785 102.134 23.2127 102.901 24.0983C103.668 24.9844 104.645 25.4273 105.834 25.4269C107.001 25.4269 107.962 24.9841 108.718 24.0983Z" fill="#006633"/>
<path d="M119.042 29.1375C118.224 28.7588 117.524 28.1652 117.016 27.4199C116.508 26.6746 116.255 25.805 116.255 24.8112C116.255 23.1479 116.8 21.9219 117.891 21.1331C118.982 20.3448 120.489 19.8208 122.412 19.5614L124.68 19.2698C125.307 19.1837 125.755 19.0271 126.025 18.7999C126.295 18.5731 126.43 18.2544 126.43 17.8439C126.43 17.2606 126.198 16.7691 125.734 16.3694C125.269 15.9699 124.637 15.7701 123.838 15.7699C122.93 15.7699 122.196 16.0076 121.634 16.4829C121.072 16.9583 120.748 17.6172 120.662 18.4596H116.579C116.709 16.7745 117.411 15.4134 118.685 14.3764C119.96 13.3394 121.602 12.8209 123.611 12.8209C125.966 12.8209 127.683 13.4205 128.764 14.6195C129.844 15.8185 130.384 17.563 130.384 19.8531V29.1536H126.722V28.5055C126.73 27.994 126.784 27.4842 126.884 26.9824C126.432 27.823 125.753 28.5194 124.924 28.9917C124.07 29.4883 122.995 29.7368 121.699 29.737C120.78 29.7391 119.871 29.5342 119.042 29.1375ZM125.458 25.751C126.192 25.0381 126.56 24.1307 126.56 23.0289V21.3114C126.236 21.6141 125.609 21.841 124.68 21.9919L123.384 22.2511C122.39 22.4243 121.623 22.6998 121.083 23.0775C120.543 23.4558 120.273 23.9796 120.273 24.6492C120.273 25.3191 120.511 25.8484 120.986 26.2371C121.461 26.626 122.055 26.8204 122.769 26.8204C123.827 26.8204 124.723 26.4639 125.458 25.751H125.458Z" fill="#006633"/>
<path d="M134.688 28.1166C133.37 27.0367 132.646 25.5676 132.517 23.7094H136.535C136.578 24.6603 136.891 25.4111 137.475 25.9616C138.058 26.5125 138.868 26.788 139.905 26.788C140.791 26.788 141.498 26.599 142.028 26.2209C142.557 25.8432 142.822 25.3517 142.822 24.7464C142.822 24.2279 142.611 23.8282 142.19 23.5474C141.769 23.2669 141.115 23.04 140.229 22.8669L138.317 22.478C134.86 21.8086 133.132 20.1991 133.132 17.6495C133.126 16.762 133.41 15.8969 133.942 15.1866C134.482 14.4524 135.244 13.8744 136.227 13.4528C137.21 13.0316 138.339 12.8209 139.614 12.8209C141.709 12.8209 143.388 13.3232 144.653 14.3278C145.917 15.3324 146.57 16.6665 146.613 18.33H142.66C142.595 17.5523 142.292 16.9311 141.752 16.4666C141.212 16.0023 140.499 15.7701 139.614 15.7699C138.857 15.7699 138.236 15.9211 137.75 16.2236C137.264 16.5264 137.021 16.9476 137.021 17.4874C137.021 17.9629 137.21 18.3356 137.588 18.6054C137.966 18.8758 138.652 19.1081 139.646 19.3022L141.558 19.691C144.993 20.3609 146.711 21.9705 146.711 24.5196C146.721 25.4801 146.432 26.4202 145.884 27.2093C145.333 28.0088 144.55 28.6299 143.535 29.0727C142.519 29.5152 141.342 29.7367 140.002 29.737C137.777 29.737 136.006 29.1969 134.688 28.1166Z" fill="#006633"/>
<path d="M161.099 28.3111C159.435 27.3607 158.155 25.978 157.259 24.1631C156.362 22.3483 155.914 20.1771 155.914 17.6494C155.914 15.2731 156.4 13.1937 157.372 11.4112C158.345 9.62888 159.689 8.26243 161.407 7.31185C163.124 6.36145 165.053 5.88616 167.191 5.88599C169.028 5.88599 170.675 6.22625 172.133 6.90677C173.592 7.58729 174.769 8.5703 175.666 9.85575C176.562 11.1414 177.107 12.6699 177.302 14.4412H172.895C172.679 12.9293 172.079 11.7249 171.096 10.8279C170.113 9.93169 168.811 9.4834 167.191 9.48307C165.852 9.48307 164.658 9.81254 163.611 10.4715C162.562 11.1307 161.747 12.0759 161.164 13.307C160.581 14.5384 160.289 15.9859 160.289 17.6494C160.289 19.3781 160.581 20.885 161.164 22.1701C161.747 23.4557 162.552 24.4387 163.578 25.1191C164.604 25.7996 165.776 26.1399 167.094 26.1399C168.736 26.1399 170.097 25.6592 171.177 24.6978C172.257 23.7367 172.916 22.4891 173.154 20.9548H177.399C177.205 22.7048 176.67 24.2441 175.795 25.5728C174.92 26.9014 173.727 27.9276 172.214 28.6514C170.702 29.3749 168.952 29.7368 166.965 29.7369C164.717 29.7369 162.762 29.2617 161.099 28.3111Z" fill="#006633"/>
<path d="M182.946 28.7162C181.715 28.0357 180.759 27.0635 180.078 25.7996C179.398 24.5358 179.058 23.0397 179.058 21.3114C179.058 19.6049 179.403 18.1143 180.095 16.8393C180.786 15.5648 181.742 14.5765 182.963 13.8742C184.183 13.1723 185.582 12.8213 187.159 12.8209C188.736 12.8209 190.14 13.1666 191.372 13.8579C192.603 14.5496 193.565 15.538 194.256 16.8231C194.947 18.1087 195.293 19.6048 195.293 21.3114C195.293 23.04 194.948 24.5361 194.256 25.7996C193.565 27.0635 192.603 28.0357 191.372 28.7162C190.141 29.3967 188.736 29.737 187.159 29.737C185.582 29.737 184.178 29.3967 182.946 28.7162ZM190.157 25.2163C190.902 24.2765 191.275 22.9749 191.275 21.3114C191.275 19.6262 190.897 18.3138 190.141 17.374C189.384 16.4342 188.39 15.9643 187.159 15.9643C185.928 15.9643 184.939 16.4342 184.194 17.374C183.449 18.3138 183.076 19.6262 183.076 21.3114C183.076 22.9752 183.443 24.2769 184.178 25.2163C184.912 26.1561 185.906 26.626 187.159 26.6259C188.412 26.6259 189.411 26.1561 190.157 25.2163Z" fill="#006633"/>
<path d="M197.856 29.1536V13.3394H201.81V14.0523C201.815 14.5737 201.772 15.0944 201.68 15.6078C202.128 14.8155 202.748 14.1343 203.495 13.6148C204.251 13.0857 205.169 12.8211 206.25 12.8209C207.178 12.8209 208.021 13.1179 208.777 13.712C209.533 14.3065 210.073 14.9925 210.398 15.7699C210.895 14.9491 211.602 14.2523 212.52 13.6796C213.417 13.1133 214.457 12.8154 215.518 12.8209C216.576 12.8209 217.516 13.0855 218.337 13.6148C219.158 14.1445 219.801 14.8898 220.265 15.8509C220.73 16.8124 220.962 17.9304 220.962 19.2049V29.1536H217.009V19.7882C217.009 18.6216 216.782 17.6926 216.328 17.0013C215.874 16.3101 215.226 15.9644 214.384 15.9643C213.519 15.9643 212.801 16.3316 212.229 17.0661C211.656 17.8008 211.37 18.7622 211.37 19.9502V29.1536H207.416V19.7882C207.416 18.6004 207.195 17.666 206.752 16.9851C206.309 16.3046 205.655 15.9643 204.791 15.9643C203.927 15.9643 203.214 16.3262 202.653 17.0499C202.091 17.774 201.81 18.7407 201.81 19.9502V29.1536H197.856Z" fill="#006633"/>
<path d="M224.251 29.1536V13.3394H228.205V14.0523C228.21 14.5737 228.166 15.0944 228.075 15.6078C228.522 14.8155 229.143 14.1343 229.89 13.6148C230.646 13.0857 231.564 12.8211 232.644 12.8209C233.573 12.8209 234.415 13.1179 235.172 13.712C235.928 14.3065 236.468 14.9925 236.792 15.7699C237.289 14.9491 237.997 14.2523 238.915 13.6796C239.812 13.1133 240.852 12.8154 241.912 12.8209C242.971 12.8209 243.911 13.0855 244.732 13.6148C245.553 14.1445 246.195 14.8898 246.66 15.8509C247.124 16.8124 247.357 17.9304 247.357 19.2049V29.1536H243.403V19.7882C243.403 18.6216 243.176 17.6926 242.723 17.0013C242.269 16.3101 241.621 15.9644 240.778 15.9643C239.914 15.9643 239.196 16.3316 238.623 17.0661C238.051 17.8008 237.764 18.7622 237.764 19.9502V29.1536H233.811V19.7882C233.811 18.6004 233.589 17.666 233.147 16.9851C232.704 16.3046 232.05 15.9643 231.186 15.9643C230.322 15.9643 229.609 16.3262 229.047 17.0499C228.485 17.774 228.204 18.7407 228.205 19.9502V29.1536H224.251Z" fill="#006633"/>
<path d="M252.042 28.068C250.983 26.9556 250.454 25.3947 250.454 23.3853V13.3394H254.44V22.7696C254.44 23.9149 254.689 24.8331 255.185 25.5241C255.682 26.2158 256.395 26.5614 257.324 26.5611C258.339 26.5611 259.166 26.21 259.803 25.5079C260.44 24.8061 260.759 23.8825 260.759 22.7372V13.3394H264.713V29.1536H260.792V28.5055C260.795 27.9937 260.85 27.4835 260.954 26.9823C259.982 28.8189 258.372 29.7371 256.125 29.7369C254.461 29.7369 253.1 29.1806 252.042 28.068Z" fill="#006633"/>
<path d="M268.086 29.1536V13.3394H272.04V14.0524C272.037 14.5735 271.994 15.0936 271.91 15.6078C272.925 13.75 274.545 12.8211 276.771 12.8209C278.521 12.8209 279.887 13.388 280.87 14.5223C281.853 15.6565 282.345 17.2066 282.345 19.1726V29.1536H278.391V19.7559C278.391 18.5893 278.127 17.6657 277.597 16.9852C277.068 16.3046 276.339 15.9643 275.41 15.9643C274.438 15.9643 273.633 16.3424 272.996 17.0986C272.358 17.8551 272.039 18.784 272.04 19.8855V29.1536H268.086Z" fill="#006633"/>
<path d="M285.521 10.9414V6.79346H289.669V10.9414H285.521ZM285.618 13.3395H289.571V29.1537H285.618V13.3395Z" fill="#006633"/>
<path d="M294.908 24.2278V16.4828H291.311V13.3393H294.908V7.63586H298.861V13.3393H302.75V16.4828H298.861V23.6445C298.861 24.5089 299.045 25.1624 299.412 25.6051C299.779 26.0481 300.373 26.2696 301.194 26.2694C301.596 26.2701 301.997 26.2376 302.393 26.1722V29.1535C302.069 29.2404 301.739 29.3053 301.405 29.348C300.96 29.413 300.51 29.4455 300.06 29.4453C296.625 29.4453 294.908 27.7061 294.908 24.2278Z" fill="#006633"/>
<path d="M307.459 35.7645L310.019 29.024L303.829 13.3394H308.269L311.639 23.5473C311.854 24.1615 312.027 24.7894 312.157 25.4269C312.222 25.0598 312.384 24.4332 312.644 23.5473L315.852 13.3394H320L311.671 35.7645H307.459Z" fill="#006633"/>
<path d="M22.0521 21.5516C24.1099 19.4937 24.1099 16.1574 22.0521 14.0996C19.9943 12.0417 16.6579 12.0417 14.6 14.0995C12.5422 16.1574 12.5422 19.4938 14.6001 21.5516C16.6579 23.6094 19.9942 23.6094 22.0521 21.5516Z" fill="#006633"/>
<path d="M18.326 35.6511C21.2362 35.6511 23.5954 33.2919 23.5954 30.3817C23.5954 27.4715 21.2362 25.1123 18.326 25.1123C15.4158 25.1123 13.0566 27.4715 13.0566 30.3817C13.0566 33.2919 15.4158 35.6511 18.326 35.6511Z" fill="#006633"/>
<path d="M11.178 27.8298C13.2359 25.7719 13.2359 22.4356 11.1781 20.3778C9.12024 18.3199 5.78384 18.3199 3.72602 20.3777C1.6682 22.4356 1.6682 25.772 3.72603 27.8298C5.78385 29.8876 9.12022 29.8876 11.178 27.8298Z" fill="#006633"/>
<path d="M11.1781 15.2736C13.2359 13.2158 13.2359 9.87942 11.1781 7.82159C9.12024 5.76377 5.78384 5.76376 3.72602 7.82159C1.66819 9.87941 1.6682 13.2158 3.72603 15.2736C5.78385 17.3315 9.12025 17.3315 11.1781 15.2736Z" fill="#006633"/>
<path d="M18.326 10.5388C21.2362 10.5388 23.5954 8.17959 23.5954 5.26939C23.5954 2.35918 21.2362 0 18.326 0C15.4158 0 13.0566 2.35918 13.0566 5.26939C13.0566 8.17959 15.4158 10.5388 18.326 10.5388Z" fill="#006633"/>
<path d="M32.9261 15.2735C34.9839 13.2157 34.9839 9.8793 32.9261 7.82148C30.8683 5.76365 27.5319 5.76364 25.4741 7.82147C23.4162 9.87929 23.4163 13.2157 25.4741 15.2735C27.5319 17.3313 30.8683 17.3313 32.9261 15.2735Z" fill="#006633"/>
<path d="M32.9261 27.8298C34.9839 25.7719 34.9839 22.4355 32.9261 20.3777C30.8683 18.3199 27.5319 18.3199 25.4741 20.3777C23.4162 22.4356 23.4162 25.7719 25.474 27.8298C27.5319 29.8876 30.8683 29.8876 32.9261 27.8298Z" fill="#006633"/>
</svg>
