<?xml version="1.0" encoding="utf-8"?>
<!-- Generator: Adobe Illustrator 24.1.0, SVG Export Plug-In . SVG Version: 6.00 Build 0)  -->
<svg version="1.1" id="Layer_1" xmlns="http://www.w3.org/2000/svg" xmlns:xlink="http://www.w3.org/1999/xlink" x="0px" y="0px"
	 viewBox="0 0 20 20" style="enable-background:new 0 0 20 20;" xml:space="preserve">
<style type="text/css">
	.st0{fill:#A3A3A2;}
</style>
<path class="st0" d="M19.6,17.6L15.9,14c1-1.4,1.6-3.2,1.6-5c0-4.7-3.9-8.6-8.6-8.6c-4.7,0-8.6,3.9-8.6,8.6c0,4.7,3.9,8.6,8.6,8.6
	c1.8,0,3.5-0.6,4.8-1.5l3.7,3.7C17.5,19.7,19.6,17.6,19.6,17.6z M2.9,8.9c0-3.3,2.7-6.1,6.1-6.1s6.1,2.7,6.1,6.1S12.3,15,9,15
	C5.6,15,2.9,12.3,2.9,8.9z"/>
</svg>
