<?xml version="1.0" encoding="utf-8"?>
<!-- Generator: Adobe Illustrator 24.1.0, SVG Export Plug-In . SVG Version: 6.00 Build 0)  -->
<svg version="1.1" id="Layer_1" xmlns="http://www.w3.org/2000/svg" xmlns:xlink="http://www.w3.org/1999/xlink" x="0px" y="0px"
	 viewBox="0 0 320 37" style="enable-background:new 0 0 320 37;" xml:space="preserve">
<style type="text/css">
	.st0{fill:#FFFFFF;}
</style>
<path class="st0" d="M52.5,29.2V6.5h9.6c2.3,0,4.2,0.5,5.6,1.4c1.4,0.9,2.1,2.4,2.1,4.3c0,1.3-0.4,2.4-1.2,3.2
	c-0.8,0.8-1.9,1.4-3.2,1.7c1.6,0.3,2.8,1,3.7,1.9c0.9,0.9,1.4,2.1,1.4,3.6c0,2.2-0.8,3.9-2.5,4.9c-1.7,1-3.8,1.6-6.4,1.6H52.5z
	 M61.6,15.6c2.6,0,3.9-1,3.9-2.9c0-1.8-1.3-2.7-3.9-2.7h-4.9v5.5H61.6z M61.8,25.6c2.9,0,4.3-1.1,4.3-3.2c0-1.1-0.4-1.9-1.1-2.4
	c-0.7-0.5-1.8-0.8-3.3-0.8h-5.1v6.4H61.8z"/>
<path class="st0" d="M73.2,10.9V6.8h4.1v4.1H73.2z M73.3,13.3h4v15.8h-4V13.3z"/>
<path class="st0" d="M83.7,28.7c-1.2-0.7-2.2-1.7-2.9-2.9c-0.7-1.3-1-2.8-1-4.5c0-1.7,0.3-3.2,1-4.5c0.7-1.3,1.6-2.3,2.9-3
	c1.2-0.7,2.6-1.1,4.2-1.1c1.6,0,3,0.3,4.2,1c1.2,0.7,2.2,1.7,2.9,3c0.7,1.3,1,2.8,1,4.5c0,1.7-0.3,3.2-1,4.5
	c-0.7,1.3-1.7,2.2-2.9,2.9c-1.2,0.7-2.6,1-4.2,1C86.3,29.7,84.9,29.4,83.7,28.7z M90.9,25.2c0.7-0.9,1.1-2.2,1.1-3.9
	c0-1.7-0.4-3-1.1-3.9c-0.8-0.9-1.8-1.4-3-1.4c-1.2,0-2.2,0.5-3,1.4c-0.7,0.9-1.1,2.3-1.1,3.9c0,1.7,0.4,3,1.1,3.9
	c0.7,0.9,1.7,1.4,3,1.4C89.1,26.6,90.1,26.2,90.9,25.2L90.9,25.2z"/>
<path class="st0" d="M100.3,34.7c-1.3-1.1-1.9-2.6-1.9-4.4h4c0,1,0.4,1.7,0.9,2.2c0.6,0.5,1.4,0.8,2.5,0.8c1.1,0,2-0.3,2.7-0.9
	c0.7-0.6,1.1-1.5,1.1-2.7v-1.7c0-0.8,0-1.4,0.1-2c-1.1,1.8-2.8,2.6-4.9,2.6c-1.4,0-2.6-0.3-3.7-0.9c-1.1-0.6-1.9-1.5-2.5-2.7
	c-0.6-1.2-0.9-2.6-0.9-4.2c0-1.6,0.3-3,1-4.2c0.6-1.2,1.5-2.1,2.6-2.8c1.1-0.6,2.2-1,3.4-1c1.3,0,2.4,0.2,3.2,0.7
	c0.8,0.5,1.4,1.2,2,2.1c-0.1-0.5-0.1-1-0.1-1.6v-0.7h4v15.3c0,2.5-0.7,4.4-2.1,5.7c-1.4,1.3-3.3,1.9-5.8,1.9
	C103.4,36.3,101.6,35.8,100.3,34.7z M108.7,24.1c0.8-0.9,1.1-2,1.1-3.4c0-1.4-0.4-2.5-1.1-3.4c-0.8-0.9-1.7-1.3-2.9-1.3
	c-1.2,0-2.2,0.4-2.9,1.3c-0.8,0.9-1.2,2-1.2,3.4c0,1.4,0.4,2.5,1.2,3.4c0.8,0.9,1.7,1.3,2.9,1.3C107,25.4,108,25,108.7,24.1z"/>
<path class="st0" d="M119,29.1c-0.8-0.4-1.5-1-2-1.7c-0.5-0.7-0.8-1.6-0.8-2.6c0-1.7,0.5-2.9,1.6-3.7c1.1-0.8,2.6-1.3,4.5-1.6
	l2.3-0.3c0.6-0.1,1.1-0.2,1.3-0.5c0.3-0.2,0.4-0.5,0.4-1c0-0.6-0.2-1.1-0.7-1.5c-0.5-0.4-1.1-0.6-1.9-0.6c-0.9,0-1.6,0.2-2.2,0.7
	c-0.6,0.5-0.9,1.1-1,2h-4.1c0.1-1.7,0.8-3,2.1-4.1c1.3-1,2.9-1.6,4.9-1.6c2.4,0,4.1,0.6,5.2,1.8c1.1,1.2,1.6,2.9,1.6,5.2v9.3h-3.7
	v-0.6c0-0.5,0.1-1,0.2-1.5c-0.5,0.8-1.1,1.5-2,2c-0.9,0.5-1.9,0.7-3.2,0.7C120.8,29.7,119.9,29.5,119,29.1z M125.5,25.8
	c0.7-0.7,1.1-1.6,1.1-2.7v-1.7c-0.3,0.3-1,0.5-1.9,0.7l-1.3,0.3c-1,0.2-1.8,0.4-2.3,0.8c-0.5,0.4-0.8,0.9-0.8,1.6
	c0,0.7,0.2,1.2,0.7,1.6c0.5,0.4,1.1,0.6,1.8,0.6C123.8,26.8,124.7,26.5,125.5,25.8L125.5,25.8z"/>
<path class="st0" d="M134.7,28.1c-1.3-1.1-2-2.5-2.2-4.4h4c0,1,0.4,1.7,0.9,2.3c0.6,0.6,1.4,0.8,2.4,0.8c0.9,0,1.6-0.2,2.1-0.6
	c0.5-0.4,0.8-0.9,0.8-1.5c0-0.5-0.2-0.9-0.6-1.2c-0.4-0.3-1.1-0.5-2-0.7l-1.9-0.4c-3.5-0.7-5.2-2.3-5.2-4.8c0-0.9,0.3-1.8,0.8-2.5
	c0.5-0.7,1.3-1.3,2.3-1.7c1-0.4,2.1-0.6,3.4-0.6c2.1,0,3.8,0.5,5,1.5c1.3,1,1.9,2.3,2,4h-4c-0.1-0.8-0.4-1.4-0.9-1.9
	c-0.5-0.5-1.3-0.7-2.1-0.7c-0.8,0-1.4,0.2-1.9,0.5c-0.5,0.3-0.7,0.7-0.7,1.3c0,0.5,0.2,0.8,0.6,1.1c0.4,0.3,1.1,0.5,2.1,0.7l1.9,0.4
	c3.4,0.7,5.2,2.3,5.2,4.8c0,1-0.3,1.9-0.8,2.7c-0.6,0.8-1.3,1.4-2.3,1.9c-1,0.4-2.2,0.7-3.5,0.7C137.8,29.7,136,29.2,134.7,28.1z"/>
<path class="st0" d="M161.1,28.3c-1.7-1-2.9-2.3-3.8-4.1c-0.9-1.8-1.3-4-1.3-6.5c0-2.4,0.5-4.5,1.5-6.2c1-1.8,2.3-3.1,4-4.1
	c1.7-1,3.6-1.4,5.8-1.4c1.8,0,3.5,0.3,4.9,1c1.5,0.7,2.6,1.7,3.5,2.9c0.9,1.3,1.4,2.8,1.6,4.6h-4.4c-0.2-1.5-0.8-2.7-1.8-3.6
	c-1-0.9-2.3-1.3-3.9-1.3c-1.3,0-2.5,0.3-3.6,1c-1,0.7-1.9,1.6-2.4,2.8c-0.6,1.2-0.9,2.7-0.9,4.3c0,1.7,0.3,3.2,0.9,4.5
	c0.6,1.3,1.4,2.3,2.4,2.9c1,0.7,2.2,1,3.5,1c1.6,0,3-0.5,4.1-1.4c1.1-1,1.7-2.2,2-3.7h4.2c-0.2,1.8-0.7,3.3-1.6,4.6
	c-0.9,1.3-2.1,2.4-3.6,3.1c-1.5,0.7-3.3,1.1-5.2,1.1C164.7,29.7,162.8,29.3,161.1,28.3z"/>
<path class="st0" d="M182.9,28.7c-1.2-0.7-2.2-1.7-2.9-2.9c-0.7-1.3-1-2.8-1-4.5c0-1.7,0.3-3.2,1-4.5c0.7-1.3,1.6-2.3,2.9-3
	c1.2-0.7,2.6-1.1,4.2-1.1c1.6,0,3,0.3,4.2,1c1.2,0.7,2.2,1.7,2.9,3c0.7,1.3,1,2.8,1,4.5c0,1.7-0.3,3.2-1,4.5
	c-0.7,1.3-1.7,2.2-2.9,2.9c-1.2,0.7-2.6,1-4.2,1S184.2,29.4,182.9,28.7z M190.2,25.2c0.7-0.9,1.1-2.2,1.1-3.9c0-1.7-0.4-3-1.1-3.9
	c-0.8-0.9-1.8-1.4-3-1.4s-2.2,0.5-3,1.4s-1.1,2.3-1.1,3.9c0,1.7,0.4,3,1.1,3.9c0.7,0.9,1.7,1.4,3,1.4
	C188.4,26.6,189.4,26.2,190.2,25.2z"/>
<path class="st0" d="M197.9,29.2V13.3h4v0.7c0,0.5,0,1-0.1,1.6c0.4-0.8,1.1-1.5,1.8-2c0.8-0.5,1.7-0.8,2.8-0.8
	c0.9,0,1.8,0.3,2.5,0.9c0.8,0.6,1.3,1.3,1.6,2.1c0.5-0.8,1.2-1.5,2.1-2.1c0.9-0.6,1.9-0.9,3-0.9c1.1,0,2,0.3,2.8,0.8
	c0.8,0.5,1.5,1.3,1.9,2.2c0.5,1,0.7,2.1,0.7,3.4v9.9h-4v-9.4c0-1.2-0.2-2.1-0.7-2.8c-0.5-0.7-1.1-1-1.9-1c-0.9,0-1.6,0.4-2.2,1.1
	c-0.6,0.7-0.9,1.7-0.9,2.9v9.2h-4v-9.4c0-1.2-0.2-2.1-0.7-2.8c-0.4-0.7-1.1-1-2-1s-1.6,0.4-2.1,1.1c-0.6,0.7-0.8,1.7-0.8,2.9v9.2
	H197.9z"/>
<path class="st0" d="M224.3,29.2V13.3h4v0.7c0,0.5,0,1-0.1,1.6c0.4-0.8,1.1-1.5,1.8-2c0.8-0.5,1.7-0.8,2.8-0.8
	c0.9,0,1.8,0.3,2.5,0.9c0.8,0.6,1.3,1.3,1.6,2.1c0.5-0.8,1.2-1.5,2.1-2.1c0.9-0.6,1.9-0.9,3-0.9c1.1,0,2,0.3,2.8,0.8
	c0.8,0.5,1.5,1.3,1.9,2.2c0.5,1,0.7,2.1,0.7,3.4v9.9h-4v-9.4c0-1.2-0.2-2.1-0.7-2.8c-0.5-0.7-1.1-1-1.9-1c-0.9,0-1.6,0.4-2.2,1.1
	c-0.6,0.7-0.9,1.7-0.9,2.9v9.2h-4v-9.4c0-1.2-0.2-2.1-0.7-2.8c-0.4-0.7-1.1-1-2-1s-1.6,0.4-2.1,1.1c-0.6,0.7-0.8,1.7-0.8,2.9v9.2
	H224.3z"/>
<path class="st0" d="M252,28.1c-1.1-1.1-1.6-2.7-1.6-4.7v-10h4v9.4c0,1.1,0.2,2.1,0.7,2.8c0.5,0.7,1.2,1,2.1,1c1,0,1.8-0.4,2.5-1.1
	c0.6-0.7,1-1.6,1-2.8v-9.4h4v15.8h-3.9v-0.6c0-0.5,0.1-1,0.2-1.5c-1,1.8-2.6,2.8-4.8,2.8C254.5,29.7,253.1,29.2,252,28.1z"/>
<path class="st0" d="M268.1,29.2V13.3h4v0.7c0,0.5,0,1-0.1,1.6c1-1.9,2.6-2.8,4.9-2.8c1.8,0,3.1,0.6,4.1,1.7c1,1.1,1.5,2.7,1.5,4.7
	v10h-4v-9.4c0-1.2-0.3-2.1-0.8-2.8c-0.5-0.7-1.3-1-2.2-1c-1,0-1.8,0.4-2.4,1.1c-0.6,0.8-1,1.7-1,2.8v9.3H268.1z"/>
<path class="st0" d="M285.5,10.9V6.8h4.1v4.1H285.5z M285.6,13.3h4v15.8h-4V13.3z"/>
<path class="st0" d="M294.9,24.2v-7.7h-3.6v-3.1h3.6V7.6h4v5.7h3.9v3.1h-3.9v7.2c0,0.9,0.2,1.5,0.6,2c0.4,0.4,1,0.7,1.8,0.7
	c0.4,0,0.8,0,1.2-0.1v3c-0.3,0.1-0.7,0.2-1,0.2c-0.4,0.1-0.9,0.1-1.3,0.1C296.6,29.4,294.9,27.7,294.9,24.2z"/>
<path class="st0" d="M307.5,35.8L310,29l-6.2-15.7h4.4l3.4,10.2c0.2,0.6,0.4,1.2,0.5,1.9c0.1-0.4,0.2-1,0.5-1.9l3.2-10.2h4.1
	l-8.3,22.4H307.5z"/>
<path class="st0" d="M22.1,21.6c2.1-2.1,2.1-5.4,0-7.5c-2.1-2.1-5.4-2.1-7.5,0c-2.1,2.1-2.1,5.4,0,7.5C16.7,23.6,20,23.6,22.1,21.6z
	"/>
<path class="st0" d="M18.3,35.7c2.9,0,5.3-2.4,5.3-5.3s-2.4-5.3-5.3-5.3s-5.3,2.4-5.3,5.3S15.4,35.7,18.3,35.7z"/>
<path class="st0" d="M11.2,27.8c2.1-2.1,2.1-5.4,0-7.5c-2.1-2.1-5.4-2.1-7.5,0c-2.1,2.1-2.1,5.4,0,7.5C5.8,29.9,9.1,29.9,11.2,27.8z
	"/>
<path class="st0" d="M11.2,15.3c2.1-2.1,2.1-5.4,0-7.5c-2.1-2.1-5.4-2.1-7.5,0c-2.1,2.1-2.1,5.4,0,7.5C5.8,17.3,9.1,17.3,11.2,15.3z
	"/>
<path class="st0" d="M18.3,10.5c2.9,0,5.3-2.4,5.3-5.3c0-2.9-2.4-5.3-5.3-5.3s-5.3,2.4-5.3,5.3C13.1,8.2,15.4,10.5,18.3,10.5z"/>
<path class="st0" d="M32.9,15.3c2.1-2.1,2.1-5.4,0-7.5c-2.1-2.1-5.4-2.1-7.5,0c-2.1,2.1-2.1,5.4,0,7.5S30.9,17.3,32.9,15.3z"/>
<path class="st0" d="M32.9,27.8c2.1-2.1,2.1-5.4,0-7.5c-2.1-2.1-5.4-2.1-7.5,0c-2.1,2.1-2.1,5.4,0,7.5
	C27.5,29.9,30.9,29.9,32.9,27.8z"/>
</svg>
