<?xml version="1.0" encoding="utf-8"?>
<!-- Generator: Adobe Illustrator 24.1.0, SVG Export Plug-In . SVG Version: 6.00 Build 0)  -->
<svg version="1.1" id="Layer_1" xmlns="http://www.w3.org/2000/svg" xmlns:xlink="http://www.w3.org/1999/xlink" x="0px" y="0px"
	 viewBox="0 0 20 20" style="enable-background:new 0 0 20 20;" xml:space="preserve">
<style type="text/css">
	.st0{fill:#010101;}
</style>
<path class="st0" d="M9.7,11.4c-1.1,0-2.1-0.3-3-0.9C5.8,9.9,5.1,9,4.7,8.1C4.3,7.1,4.2,6,4.4,4.9c0.2-1.1,0.7-2,1.5-2.8
	c0.8-0.8,1.7-1.3,2.8-1.5c1.1-0.2,2.1-0.1,3.1,0.3c1,0.4,1.8,1.1,2.4,2c0.6,0.9,0.9,1.9,0.9,3c0,1.4-0.6,2.8-1.6,3.8
	C12.6,10.8,11.2,11.4,9.7,11.4z M9.7,1.4c-0.9,0-1.8,0.3-2.6,0.8C6.4,2.6,5.8,3.4,5.5,4.2C5.1,5,5,6,5.2,6.9
	c0.2,0.9,0.6,1.7,1.3,2.4s1.5,1.1,2.4,1.3c0.9,0.2,1.8,0.1,2.7-0.3c0.8-0.3,1.6-0.9,2.1-1.7c0.5-0.8,0.8-1.6,0.8-2.6
	c0-1.2-0.5-2.4-1.3-3.3C12.1,1.9,10.9,1.4,9.7,1.4z"/>
<path class="st0" d="M18.1,19.4H1.4v-0.4c0-2.2,0.9-4.3,2.5-5.9c1.6-1.6,3.7-2.4,5.9-2.4c2.2,0,4.3,0.9,5.9,2.4
	c1.6,1.6,2.4,3.7,2.5,5.9V19.4z M2.2,18.5h15c-0.1-1.9-0.9-3.7-2.3-5c-1.4-1.3-3.2-2.1-5.2-2.1c-1.9,0-3.8,0.7-5.2,2.1
	S2.3,16.6,2.2,18.5z"/>
</svg>
