<?xml version="1.0" encoding="utf-8"?>
<!-- Generator: Adobe Illustrator 26.3.1, SVG Export Plug-In . SVG Version: 6.00 Build 0)  -->
<svg version="1.1" xmlns="http://www.w3.org/2000/svg" xmlns:xlink="http://www.w3.org/1999/xlink" x="0px" y="0px"
	 viewBox="0 0 32.5 33.3" style="enable-background:new 0 0 32.5 33.3;" xml:space="preserve">
<style type="text/css">
	.st0{fill:#3FF18B;}
	.st1{display:none;}
	.st2{display:inline;fill:#C5C4C4;fill-opacity:0.6;}
</style>
<g id="Layer_1">
	<path class="st0" d="M25.7,13.7H9.8V8.5c0-3.6,2.9-6.4,6.4-6.4c3.6,0,6.4,2.9,6.4,6.4c0,0,0,0.7,0.8,0.7c0.9,0,0.9-0.7,0.9-0.7
		c0-4.5-3.7-8.2-8.2-8.2C11.7,0.3,8,4,8,8.5v5.2H6.8c-1.2,0-2.1,1-2.1,2.1v14.8c0,1.2,1,2.1,2.1,2.1h18.9c1.2,0,2.1-1,2.1-2.1V15.9
		C27.8,14.7,26.9,13.7,25.7,13.7z M16.9,23.3v3.2c0,0.4-0.3,0.7-0.7,0.7c-0.4,0-0.7-0.3-0.7-0.7v-3.2c-0.8-0.3-1.4-1-1.4-1.9
		c0-1.1,0.9-2,2-2c1.1,0,2,0.9,2,2C18.3,22.3,17.7,23.1,16.9,23.3z"/>
</g>
<g id="Layer_2" class="st1">
	<path class="st2" d="M25.7,13.7h-1.2V8.5c0-4.5-3.7-8.2-8.2-8.2C11.7,0.3,8,4,8,8.5v5.2H6.8c-1.2,0-2.1,1-2.1,2.1v14.8
		c0,1.2,1,2.1,2.1,2.1h18.9c1.2,0,2.1-1,2.1-2.1V15.9C27.8,14.7,26.9,13.7,25.7,13.7z M9.8,8.5c0-3.6,2.9-6.4,6.4-6.4
		c3.6,0,6.4,2.9,6.4,6.4v5.2H9.8V8.5z M16.9,23.3v3.2c0,0.4-0.3,0.7-0.7,0.7c-0.4,0-0.7-0.3-0.7-0.7v-3.2c-0.8-0.3-1.4-1-1.4-1.9
		c0-1.1,0.9-2,2-2c1.1,0,2,0.9,2,2C18.3,22.3,17.7,23.1,16.9,23.3z"/>
</g>
</svg>
